<?xml version="1.0" encoding="utf-8" standalone="yes"?>
<!DOCTYPE svg PUBLIC "-//W3C//DTD SVG 1.1//EN" "http://www.w3.org/Graphics/SVG/1.1/DTD/svg11.dtd">
<svg width="961" height="613" viewBox="0 0 961 613" style="fill:none;stroke:none;fill-rule:evenodd;clip-rule:evenodd;stroke-linecap:round;stroke-linejoin:round;stroke-miterlimit:1.5;" version="1.1" xmlns="http://www.w3.org/2000/svg" xmlns:xlink="http://www.w3.org/1999/xlink"><g id="items" style="isolation: isolate"><g id="blend" style="mix-blend-mode: normal"><g id="g-root-7.cu_sy_quo3rc1kd70uj-fill" data-item-order="999716182" transform="translate(743.6697387695312, 148.6507568359375)"><g id="7.cu_sy_quo3rc1kd70uj-fill" stroke="none" fill="#95bdff"><g><path d="M 10 82C 10 42.2355 42.2355 10 82 10C 121.765 10 154 42.2355 154 82L 154 226L 166 226L 142 262L 118 226L 130 226L 130 82C 130 55.4903 108.5096 34 82 34C 55.4904 34 34 55.4903 34 82L 10 82Z"></path></g></g></g><g id="g-root-6.cu_sy_quo3rc1kd70uk-fill" data-item-order="999716186" transform="translate(623.6697387695312, 220.6507568359375)"><g id="6.cu_sy_quo3rc1kd70uk-fill" stroke="none" fill="#639eff"><g><path d="M 34 130C 34 156.51 55.4904 178 82 178C 108.5096 178 130 156.51 130 130L 130 70L 130 10L 154 10L 154 70L 154 130C 154 169.764 121.765 202 82 202C 42.2355 202 10 169.764 10 130L 34 130Z"></path></g></g></g><g id="g-root-5.cu_sy_mfh2q01kd6yh1-fill" data-item-order="999716190" transform="translate(503.66973876953125, 208.6507568359375)"><g id="5.cu_sy_mfh2q01kd6yh1-fill" stroke="none" fill="#4e8ef5"><g><path d="M 10 82C 10 42.2355 42.2355 10 82 10C 121.765 10 154 42.2355 154 82L 154 142L 130 142L 130 82C 130 55.4903 108.5096 34 82 34C 55.4904 34 34 55.4903 34 82L 34 202L 10 202L 10 82Z"></path></g></g></g><g id="g-root-4.cu_sy_mfh2q01kd6yh2-fill" data-item-order="999716194" transform="translate(383.66973876953125, 280.6507568359375)"><g id="4.cu_sy_mfh2q01kd6yh2-fill" stroke="none" fill="#4e87e3"><g><path d="M 34 130C 34 156.51 55.4903 178 82 178C 108.5097 178 130 156.51 130 130L 154 130C 154 169.764 121.764 202 82 202C 42.2355 202 10 169.764 10 130L 10 70L 10 10L 34 10L 34 70L 34 130Z"></path></g></g></g><g id="g-root-3.cu_sy_mfh2q01kd6yh3-fill" data-item-order="999716198" transform="translate(263.66973876953125, 148.6507568359375)"><g id="3.cu_sy_mfh2q01kd6yh3-fill" stroke="none" fill="#5081d0"><g><path d="M 10 82C 10 42.2355 42.2355 10 82 10C 121.764 10 154 42.2355 154 82L 154 142L 130 142L 130 82C 130 55.4903 108.5097 34 82 34C 55.4903 34 34 55.4903 34 82L 10 82Z"></path></g></g></g><g id="g-root-2.cu_sy_hznklk1kd6z9c-fill" data-item-order="999716202" transform="translate(143.66973876953125, 220.6507568359375)"><g id="2.cu_sy_hznklk1kd6z9c-fill" stroke="none" fill="#436aa9"><g><path d="M 34 130C 34 156.51 55.4903 178 82 178C 108.5097 178 130 156.51 130 130L 130 70L 130 10L 154 10L 154 70L 154 130C 154 169.764 121.764 202 82 202C 42.2355 202 10 169.764 10 130L 10 70L 34 70L 34 130Z"></path></g></g></g><g id="g-root-1.cu_sy_hznklk1kd6z9d-fill" data-item-order="999716206" transform="translate(23.66973876953125, 208.6507568359375)"><g id="1.cu_sy_hznklk1kd6z9d-fill" stroke="none" fill="#405578"><g><path d="M 82 34C 55.4903 34 34 55.4903 34 82L 34 142L 34 202L 10 202L 10 142L 10 82C 10 42.2355 42.2355 10 82 10C 121.765 10 154 42.2355 154 82L 130 82C 130 55.4903 108.5097 34 82 34Z"></path></g></g></g><g id="g-root-tx_customer_1uual1k1kd6ya7-fill" data-item-order="1000000000" transform="translate(209.66973876953125, 77.0550537109375)"><g id="tx_customer_1uual1k1kd6ya7-fill" stroke="none" fill="#484848"><g><text style="font: 15px &quot;Inter 700italic&quot;, sans-serif; white-space: pre;" font-size="15px" font-family="'Inter 700italic', sans-serif"><tspan x="80.71" y="31" dominant-baseline="ideographic">User Research </tspan><tspan x="130.82" y="49" dominant-baseline="ideographic">&amp;</tspan><tspan x="80.77" y="67" dominant-baseline="ideographic">Idea Validation</tspan></text></g></g></g><g id="g-root-tx_postimpl_940kco1kd7023-fill" data-item-order="1000000000" transform="translate(731.6697387695312, 95.05508422851562)"><g id="tx_postimpl_940kco1kd7023-fill" stroke="none" fill="#484848"><g><text style="font: 15px &quot;Inter 700italic&quot;, sans-serif; white-space: pre;" font-size="15px" font-family="'Inter 700italic', sans-serif"><tspan x="14.94" y="28" dominant-baseline="ideographic">Post-Implementation </tspan><tspan x="62.63" y="46" dominant-baseline="ideographic">Support</tspan></text></g></g></g><g id="g-root-tx_discover_9016w1kd6ygx-fill" data-item-order="1000000000" transform="translate(35.66973876953125, 131.0550537109375)"><g id="tx_discover_9016w1kd6ygx-fill" stroke="none" fill="#484848"><g><text style="font: 15px &quot;Inter 700italic&quot;, sans-serif; white-space: pre;" font-size="15px" font-family="'Inter 700italic', sans-serif"><tspan x="15.11" y="31" dominant-baseline="ideographic">Discovery Call </tspan><tspan x="64.82" y="49" dominant-baseline="ideographic">&amp;</tspan><tspan x="13.61" y="67" dominant-baseline="ideographic">Fit Assessment</tspan></text></g></g></g><g id="g-root-tx_launchit_4o72881kd70ud-fill" data-item-order="1000000000" transform="translate(497.66973876953125, 161.0550537109375)"><g id="tx_launchit_4o72881kd70ud-fill" stroke="none" fill="#484848"><g><text style="font: 15px &quot;Inter 700italic&quot;, sans-serif; white-space: pre;" font-size="15px" font-family="'Inter 700italic', sans-serif"><tspan x="11.82" y="28" dominant-baseline="ideographic">Launch MVP, Iterate </tspan><tspan x="14.37" y="46" dominant-baseline="ideographic">Based on Feedback</tspan></text></g></g></g><g id="g-root-tx_definesu_9016w1kd6ygw-fill" data-item-order="1000000000" transform="translate(125.66973876953125, 425.0550537109375)"><g id="tx_definesu_9016w1kd6ygw-fill" stroke="none" fill="#484848"><g><text style="font: 15px &quot;Inter 700italic&quot;, sans-serif; white-space: pre;" font-size="15px" font-family="'Inter 700italic', sans-serif"><tspan x="13.49" y="31" dominant-baseline="ideographic">Define Success Criteria</tspan></text></g></g></g><g id="g-root-tx_monitorp_4o72881kd70uc-fill" data-item-order="1000000000" transform="translate(599.6697387695312, 425.0550537109375)"><g id="tx_monitorp_4o72881kd70uc-fill" stroke="none" fill="#484848"><g><text style="font: 15px &quot;Inter 700italic&quot;, sans-serif; white-space: pre;" font-size="15px" font-family="'Inter 700italic', sans-serif"><tspan x="27.45" y="28" dominant-baseline="ideographic">Monitor Performance </tspan><tspan x="15.04" y="46" dominant-baseline="ideographic">Against Success Criteria</tspan></text></g></g></g><g id="g-root-tx_prototyp_4o72881kd70ue-fill" data-item-order="1000000000" transform="translate(401.66973876953125, 485.0550537109375)"><g id="tx_prototyp_4o72881kd70ue-fill" stroke="none" fill="#484848"><g><text style="font: 15px &quot;Inter 700italic&quot;, sans-serif; white-space: pre;" font-size="15px" font-family="'Inter 700italic', sans-serif"><tspan x="31.56" y="28" dominant-baseline="ideographic">Design &amp;</tspan><tspan x="15.46" y="46" dominant-baseline="ideographic">Development</tspan></text></g></g></g><g id="g-root-7.cu_sy_quo3rc1kd70uj-stroke" data-item-order="999716182" transform="translate(743.6697387695312, 148.6507568359375)"><g id="7.cu_sy_quo3rc1kd70uj-stroke" fill="none" stroke-linecap="butt" stroke-linejoin="miter" stroke-miterlimit="4" stroke="#95bdff" stroke-width="1"><g><path d="M 10 82C 10 42.2355 42.2355 10 82 10C 121.7645 10 154 42.2355 154 82L 154 226L 166 226L 142 262L 118 226L 130 226L 130 82C 130 55.4903 108.5096 34 82 34C 55.4904 34 34 55.4903 34 82L 10 82Z"></path></g></g></g><g id="g-root-6.cu_sy_quo3rc1kd70uk-stroke" data-item-order="999716186" transform="translate(623.6697387695312, 220.6507568359375)"><g id="6.cu_sy_quo3rc1kd70uk-stroke" fill="none" stroke-linecap="butt" stroke-linejoin="miter" stroke-miterlimit="4" stroke="#639eff" stroke-width="1"><g><path d="M 34 130C 34 156.5097 55.4904 178 82 178C 108.5096 178 130 156.5097 130 130L 130 10L 154 10L 154 130C 154 169.7645 121.7645 202 82 202C 42.2355 202 10 169.7645 10 130L 34 130Z"></path></g></g></g><g id="g-root-5.cu_sy_mfh2q01kd6yh1-stroke" data-item-order="999716190" transform="translate(503.66973876953125, 208.6507568359375)"><g id="5.cu_sy_mfh2q01kd6yh1-stroke" fill="none" stroke-linecap="butt" stroke-linejoin="miter" stroke-miterlimit="4" stroke="#4e8ef5" stroke-width="1"><g><path d="M 10 82C 10 42.2355 42.2355 10 82 10C 121.7645 10 154 42.2355 154 82L 154 142L 130 142L 130 82C 130 55.4903 108.5096 34 82 34C 55.4904 34 34 55.4903 34 82L 34 202L 10 202L 10 82Z"></path></g></g></g><g id="g-root-4.cu_sy_mfh2q01kd6yh2-stroke" data-item-order="999716194" transform="translate(383.66973876953125, 280.6507568359375)"><g id="4.cu_sy_mfh2q01kd6yh2-stroke" fill="none" stroke-linecap="butt" stroke-linejoin="miter" stroke-miterlimit="4" stroke="#4e87e3" stroke-width="1"><g><path d="M 34 130C 34 156.5097 55.4903 178 82 178C 108.5097 178 130 156.5097 130 130L 154 130C 154 169.7645 121.7645 202 82 202C 42.2355 202 10 169.7645 10 130L 10 10L 34 10L 34 130Z"></path></g></g></g><g id="g-root-3.cu_sy_mfh2q01kd6yh3-stroke" data-item-order="999716198" transform="translate(263.66973876953125, 148.6507568359375)"><g id="3.cu_sy_mfh2q01kd6yh3-stroke" fill="none" stroke-linecap="butt" stroke-linejoin="miter" stroke-miterlimit="4" stroke="#5081d0" stroke-width="1"><g><path d="M 10 82C 10 42.2355 42.2355 10 82 10C 121.7645 10 154 42.2355 154 82L 154 142L 130 142L 130 82C 130 55.4903 108.5097 34 82 34C 55.4903 34 34 55.4903 34 82L 10 82Z"></path></g></g></g><g id="g-root-2.cu_sy_hznklk1kd6z9c-stroke" data-item-order="999716202" transform="translate(143.66973876953125, 220.6507568359375)"><g id="2.cu_sy_hznklk1kd6z9c-stroke" fill="none" stroke-linecap="butt" stroke-linejoin="miter" stroke-miterlimit="4" stroke="#436aa9" stroke-width="1"><g><path d="M 34 130C 34 156.5097 55.4903 178 82 178C 108.5097 178 130 156.5097 130 130L 130 10L 154 10L 154 130C 154 169.7645 121.7645 202 82 202C 42.2355 202 10 169.7645 10 130L 10 70L 34 70L 34 130Z"></path></g></g></g><g id="g-root-1.cu_sy_hznklk1kd6z9d-stroke" data-item-order="999716206" transform="translate(23.66973876953125, 208.6507568359375)"><g id="1.cu_sy_hznklk1kd6z9d-stroke" fill="none" stroke-linecap="butt" stroke-linejoin="miter" stroke-miterlimit="4" stroke="#405578" stroke-width="1"><g><path d="M 82 34C 55.4903 34 34 55.4903 34 82L 34 202L 10 202L 10 82C 10 42.2355 42.2355 10 82 10C 121.7645 10 154 42.2355 154 82L 130 82C 130 55.4903 108.5097 34 82 34Z"></path></g></g></g><g id="g-root-tx_customer_1uual1k1kd6ya7-stroke" data-item-order="1000000000" transform="translate(209.66973876953125, 77.0550537109375)"></g><g id="g-root-tx_postimpl_940kco1kd7023-stroke" data-item-order="1000000000" transform="translate(731.6697387695312, 95.05508422851562)"></g><g id="g-root-tx_discover_9016w1kd6ygx-stroke" data-item-order="1000000000" transform="translate(35.66973876953125, 131.0550537109375)"></g><g id="g-root-tx_launchit_4o72881kd70ud-stroke" data-item-order="1000000000" transform="translate(497.66973876953125, 161.0550537109375)"></g><g id="g-root-tx_definesu_9016w1kd6ygw-stroke" data-item-order="1000000000" transform="translate(125.66973876953125, 425.0550537109375)"></g><g id="g-root-tx_monitorp_4o72881kd70uc-stroke" data-item-order="1000000000" transform="translate(599.6697387695312, 425.0550537109375)"></g><g id="g-root-tx_prototyp_4o72881kd70ue-stroke" data-item-order="1000000000" transform="translate(401.66973876953125, 485.0550537109375)"></g></g></g></svg>